<svg width="18" height="21" viewBox="0 0 18 21" fill="none" xmlns="http://www.w3.org/2000/svg">
<path d="M17.987 14.5C17.9913 14.3932 17.9781 14.2865 17.948 14.184L15.948 8.184C15.882 7.98479 15.7548 7.81147 15.5846 7.68867C15.4144 7.56588 15.2099 7.49986 15 7.5H11V9.5H14.279L15.946 14.5H2.054L3.721 9.5H7V7.5H3C2.79013 7.49986 2.58556 7.56588 2.41537 7.68867C2.24518 7.81147 2.11803 7.98479 2.052 8.184L0.052 14.184C0.0218614 14.2865 0.00868753 14.3932 0.013 14.5C1.11759e-08 14.5 0 19.5 0 19.5C0 19.7652 0.105357 20.0196 0.292893 20.2071C0.48043 20.3946 0.734784 20.5 1 20.5H17C17.2652 20.5 17.5196 20.3946 17.7071 20.2071C17.8946 20.0196 18 19.7652 18 19.5C18 19.5 18 14.5 17.987 14.5ZM13 6.404C13.259 6.404 13.518 6.309 13.707 6.121C13.8945 5.93347 13.9998 5.67916 13.9998 5.414C13.9998 5.14884 13.8945 4.89453 13.707 4.707L9 0L4.293 4.707C4.10553 4.89453 4.00021 5.14884 4.00021 5.414C4.00021 5.67916 4.10553 5.93347 4.293 6.121C4.482 6.31 4.741 6.404 5 6.404C5.259 6.404 5.518 6.31 5.707 6.121L8 3.828V10.5C8 10.7652 8.10536 11.0196 8.29289 11.2071C8.48043 11.3946 8.73478 11.5 9 11.5C9.26522 11.5 9.51957 11.3946 9.70711 11.2071C9.89464 11.0196 10 10.7652 10 10.5V3.828L12.293 6.121C12.4819 6.30517 12.7362 6.40693 13 6.404Z" fill="#8613B9"/>
</svg>
